<mxfile host="app.diagrams.net" modified="2023-07-03T19:15:54.902Z" agent="Mozilla/5.0 (Macintosh; Intel Mac OS X 10_15_7) AppleWebKit/537.36 (KHTML, like Gecko) Chrome/114.0.0.0 Safari/537.36" etag="Jv3BV4Vx7wmHvz3R-Md1" version="21.1.2" type="device">
  <diagram name="ETL" id="Hp8G4muU6Q12vIePAtmt">
    <mxGraphModel dx="1832" dy="752" grid="0" gridSize="10" guides="1" tooltips="1" connect="1" arrows="1" fold="1" page="1" pageScale="1" pageWidth="1169" pageHeight="827" math="0" shadow="0">
      <root>
        <mxCell id="0" />
        <mxCell id="1" parent="0" />
        <mxCell id="-YF_Zsta2TuhW1CbFXiP-1" value="Big Query" style="shape=cylinder3;whiteSpace=wrap;html=1;boundedLbl=1;backgroundOutline=1;size=15;strokeColor=#FF3333;" vertex="1" parent="1">
          <mxGeometry x="1060" y="340" width="60" height="80" as="geometry" />
        </mxCell>
        <mxCell id="-YF_Zsta2TuhW1CbFXiP-3" value="" style="endArrow=classic;html=1;rounded=0;entryX=1;entryY=0.5;entryDx=0;entryDy=0;exitX=0.5;exitY=0;exitDx=0;exitDy=0;exitPerimeter=0;" edge="1" parent="1" source="-YF_Zsta2TuhW1CbFXiP-1">
          <mxGeometry width="50" height="50" relative="1" as="geometry">
            <mxPoint x="540" y="400" as="sourcePoint" />
            <mxPoint x="420" y="70" as="targetPoint" />
            <Array as="points">
              <mxPoint x="1090" y="70" />
            </Array>
          </mxGeometry>
        </mxCell>
        <mxCell id="-YF_Zsta2TuhW1CbFXiP-4" value="Ultima fecha x origen" style="edgeLabel;html=1;align=center;verticalAlign=middle;resizable=0;points=[];" vertex="1" connectable="0" parent="-YF_Zsta2TuhW1CbFXiP-3">
          <mxGeometry x="-0.0016" y="-1" relative="1" as="geometry">
            <mxPoint as="offset" />
          </mxGeometry>
        </mxCell>
        <mxCell id="-YF_Zsta2TuhW1CbFXiP-5" value="URL Japon" style="shape=note;whiteSpace=wrap;html=1;backgroundOutline=1;darkOpacity=0.05;" vertex="1" parent="1">
          <mxGeometry x="40" y="200" width="80" height="100" as="geometry" />
        </mxCell>
        <mxCell id="-YF_Zsta2TuhW1CbFXiP-6" value="URL Chile" style="shape=note;whiteSpace=wrap;html=1;backgroundOutline=1;darkOpacity=0.05;" vertex="1" parent="1">
          <mxGeometry x="40" y="320" width="80" height="100" as="geometry" />
        </mxCell>
        <mxCell id="-YF_Zsta2TuhW1CbFXiP-7" value="URL USA" style="shape=note;whiteSpace=wrap;html=1;backgroundOutline=1;darkOpacity=0.05;" vertex="1" parent="1">
          <mxGeometry x="40" y="561" width="80" height="100" as="geometry" />
        </mxCell>
        <mxCell id="-YF_Zsta2TuhW1CbFXiP-8" value="Web crawling + scrapping" style="rounded=1;whiteSpace=wrap;html=1;strokeColor=#FF3333;" vertex="1" parent="1">
          <mxGeometry x="200" y="230" width="120" height="60" as="geometry" />
        </mxCell>
        <mxCell id="-YF_Zsta2TuhW1CbFXiP-9" value="" style="endArrow=classic;html=1;rounded=0;" edge="1" parent="1">
          <mxGeometry width="50" height="50" relative="1" as="geometry">
            <mxPoint x="120" y="260" as="sourcePoint" />
            <mxPoint x="200" y="260" as="targetPoint" />
          </mxGeometry>
        </mxCell>
        <mxCell id="-YF_Zsta2TuhW1CbFXiP-10" value="Web crawling + scrapping" style="rounded=1;whiteSpace=wrap;html=1;strokeColor=#FF3333;" vertex="1" parent="1">
          <mxGeometry x="280" y="350" width="120" height="60" as="geometry" />
        </mxCell>
        <mxCell id="-YF_Zsta2TuhW1CbFXiP-11" value="" style="endArrow=classic;html=1;rounded=0;entryX=0;entryY=0.5;entryDx=0;entryDy=0;" edge="1" parent="1" target="-YF_Zsta2TuhW1CbFXiP-10">
          <mxGeometry width="50" height="50" relative="1" as="geometry">
            <mxPoint x="120" y="380" as="sourcePoint" />
            <mxPoint x="240" y="379.5" as="targetPoint" />
          </mxGeometry>
        </mxCell>
        <mxCell id="-YF_Zsta2TuhW1CbFXiP-12" value="API connection" style="rounded=1;whiteSpace=wrap;html=1;strokeColor=#FF3333;" vertex="1" parent="1">
          <mxGeometry x="360" y="591" width="120" height="60" as="geometry" />
        </mxCell>
        <mxCell id="-YF_Zsta2TuhW1CbFXiP-13" value="" style="endArrow=classic;html=1;rounded=0;entryX=0;entryY=0.5;entryDx=0;entryDy=0;exitX=1;exitY=0.597;exitDx=0;exitDy=0;exitPerimeter=0;" edge="1" parent="1" source="-YF_Zsta2TuhW1CbFXiP-7" target="-YF_Zsta2TuhW1CbFXiP-12">
          <mxGeometry width="50" height="50" relative="1" as="geometry">
            <mxPoint x="130" y="621" as="sourcePoint" />
            <mxPoint x="240" y="620.5" as="targetPoint" />
          </mxGeometry>
        </mxCell>
        <mxCell id="-YF_Zsta2TuhW1CbFXiP-14" value="1" style="endArrow=classic;html=1;rounded=0;exitX=0.25;exitY=1;exitDx=0;exitDy=0;entryX=0.5;entryY=0;entryDx=0;entryDy=0;dashed=1;" edge="1" parent="1" target="-YF_Zsta2TuhW1CbFXiP-8">
          <mxGeometry x="0.875" y="10" width="50" height="50" relative="1" as="geometry">
            <mxPoint x="330" y="100" as="sourcePoint" />
            <mxPoint x="250" y="230" as="targetPoint" />
            <Array as="points">
              <mxPoint x="330" y="180" />
              <mxPoint x="260" y="180" />
            </Array>
            <mxPoint as="offset" />
          </mxGeometry>
        </mxCell>
        <mxCell id="-YF_Zsta2TuhW1CbFXiP-15" value="&lt;h1&gt;&lt;font style=&quot;font-size: 18px;&quot;&gt;Asignaciones&lt;/font&gt;&lt;/h1&gt;&lt;pre&gt;1. Si fecha &amp;gt;= 1/7/2023 (Japon)&lt;br&gt;2. Si fecha &amp;gt;= 19/8/2015 (Chile)&lt;br&gt;2b. Si fecha &amp;lt; 19/8/2015 (Chile)&lt;br&gt;3. Siempre para USA +&lt;br&gt;   Si fecha &amp;lt; 1/7/2023 para Japon&lt;br&gt;4. Siempre (Todos)&lt;/pre&gt;" style="text;html=1;strokeColor=none;fillColor=none;spacing=5;spacingTop=-20;whiteSpace=wrap;overflow=hidden;rounded=0;" vertex="1" parent="1">
          <mxGeometry x="50" y="30" width="280" height="140" as="geometry" />
        </mxCell>
        <mxCell id="-YF_Zsta2TuhW1CbFXiP-16" value="2" style="endArrow=classic;html=1;rounded=0;exitX=0.5;exitY=1;exitDx=0;exitDy=0;entryX=0.5;entryY=0;entryDx=0;entryDy=0;dashed=1;" edge="1" parent="1" target="-YF_Zsta2TuhW1CbFXiP-10">
          <mxGeometry x="0.9259" y="10" width="50" height="50" relative="1" as="geometry">
            <mxPoint x="360" y="100" as="sourcePoint" />
            <mxPoint x="310" y="200" as="targetPoint" />
            <Array as="points">
              <mxPoint x="360" y="200" />
              <mxPoint x="340" y="200" />
            </Array>
            <mxPoint as="offset" />
          </mxGeometry>
        </mxCell>
        <mxCell id="-YF_Zsta2TuhW1CbFXiP-17" value="URL Daños" style="shape=note;whiteSpace=wrap;html=1;backgroundOutline=1;darkOpacity=0.05;" vertex="1" parent="1">
          <mxGeometry x="40" y="681" width="80" height="100" as="geometry" />
        </mxCell>
        <mxCell id="-YF_Zsta2TuhW1CbFXiP-18" value="Dataset Chile carga inicial" style="shape=note;whiteSpace=wrap;html=1;backgroundOutline=1;darkOpacity=0.05;" vertex="1" parent="1">
          <mxGeometry x="40" y="440" width="80" height="100" as="geometry" />
        </mxCell>
        <mxCell id="-YF_Zsta2TuhW1CbFXiP-19" value="3" style="endArrow=classic;html=1;rounded=0;exitX=0.75;exitY=1;exitDx=0;exitDy=0;entryX=0.5;entryY=0;entryDx=0;entryDy=0;dashed=1;" edge="1" parent="1" target="-YF_Zsta2TuhW1CbFXiP-12">
          <mxGeometry x="0.9545" y="10" width="50" height="50" relative="1" as="geometry">
            <mxPoint x="390" y="100" as="sourcePoint" />
            <mxPoint x="390" y="320" as="targetPoint" />
            <Array as="points">
              <mxPoint x="390" y="180" />
              <mxPoint x="420" y="180" />
            </Array>
            <mxPoint as="offset" />
          </mxGeometry>
        </mxCell>
        <mxCell id="-YF_Zsta2TuhW1CbFXiP-20" value="Esta API puede devolver info mundial" style="text;html=1;strokeColor=none;fillColor=none;align=center;verticalAlign=middle;whiteSpace=wrap;rounded=0;" vertex="1" parent="1">
          <mxGeometry x="290" y="560" width="120" height="30" as="geometry" />
        </mxCell>
        <mxCell id="-YF_Zsta2TuhW1CbFXiP-21" value="Web crawling + scrapping" style="rounded=1;whiteSpace=wrap;html=1;strokeColor=#FF3333;" vertex="1" parent="1">
          <mxGeometry x="440" y="711" width="120" height="60" as="geometry" />
        </mxCell>
        <mxCell id="-YF_Zsta2TuhW1CbFXiP-22" value="" style="endArrow=classic;html=1;rounded=0;entryX=0;entryY=0.5;entryDx=0;entryDy=0;" edge="1" parent="1" target="-YF_Zsta2TuhW1CbFXiP-21">
          <mxGeometry width="50" height="50" relative="1" as="geometry">
            <mxPoint x="120" y="741" as="sourcePoint" />
            <mxPoint x="360" y="741" as="targetPoint" />
          </mxGeometry>
        </mxCell>
        <mxCell id="-YF_Zsta2TuhW1CbFXiP-23" value="4" style="endArrow=classic;html=1;rounded=0;exitX=0.942;exitY=0.867;exitDx=0;exitDy=0;entryX=0.5;entryY=0;entryDx=0;entryDy=0;dashed=1;exitPerimeter=0;" edge="1" parent="1" source="-YF_Zsta2TuhW1CbFXiP-40" target="-YF_Zsta2TuhW1CbFXiP-21">
          <mxGeometry x="0.9672" y="10" width="50" height="50" relative="1" as="geometry">
            <mxPoint x="420" y="100" as="sourcePoint" />
            <mxPoint x="470" y="440" as="targetPoint" />
            <Array as="points">
              <mxPoint x="413" y="140" />
              <mxPoint x="500" y="140" />
            </Array>
            <mxPoint as="offset" />
          </mxGeometry>
        </mxCell>
        <mxCell id="-YF_Zsta2TuhW1CbFXiP-24" value="&lt;h1&gt;&lt;font style=&quot;font-size: 18px;&quot;&gt;Setup DB&lt;/font&gt;&lt;/h1&gt;&lt;pre&gt;El setup de Big Query&lt;br&gt;requiere las ultimas&lt;br&gt;fechas por origen y&lt;br&gt;por daños&lt;/pre&gt;" style="text;html=1;strokeColor=none;fillColor=none;spacing=5;spacingTop=-20;whiteSpace=wrap;overflow=hidden;rounded=0;" vertex="1" parent="1">
          <mxGeometry x="1000" y="460" width="160" height="120" as="geometry" />
        </mxCell>
        <mxCell id="-YF_Zsta2TuhW1CbFXiP-25" value="Format Japon a standard" style="rounded=1;whiteSpace=wrap;html=1;strokeColor=#FF3333;" vertex="1" parent="1">
          <mxGeometry x="640" y="230" width="120" height="60" as="geometry" />
        </mxCell>
        <mxCell id="-YF_Zsta2TuhW1CbFXiP-26" value="" style="endArrow=classic;html=1;rounded=0;entryX=0;entryY=0.5;entryDx=0;entryDy=0;exitX=1;exitY=0.5;exitDx=0;exitDy=0;" edge="1" parent="1" source="-YF_Zsta2TuhW1CbFXiP-8" target="-YF_Zsta2TuhW1CbFXiP-25">
          <mxGeometry width="50" height="50" relative="1" as="geometry">
            <mxPoint x="360" y="259.5" as="sourcePoint" />
            <mxPoint x="480" y="260" as="targetPoint" />
          </mxGeometry>
        </mxCell>
        <mxCell id="-YF_Zsta2TuhW1CbFXiP-27" value="Format Chile a standard" style="rounded=1;whiteSpace=wrap;html=1;strokeColor=#FF3333;" vertex="1" parent="1">
          <mxGeometry x="640" y="350" width="120" height="60" as="geometry" />
        </mxCell>
        <mxCell id="-YF_Zsta2TuhW1CbFXiP-28" value="Format USGS a standard" style="rounded=1;whiteSpace=wrap;html=1;strokeColor=#FF3333;" vertex="1" parent="1">
          <mxGeometry x="640" y="591" width="120" height="60" as="geometry" />
        </mxCell>
        <mxCell id="-YF_Zsta2TuhW1CbFXiP-29" value="Format Daños" style="rounded=1;whiteSpace=wrap;html=1;strokeColor=#FF3333;" vertex="1" parent="1">
          <mxGeometry x="640" y="711" width="120" height="60" as="geometry" />
        </mxCell>
        <mxCell id="-YF_Zsta2TuhW1CbFXiP-30" value="" style="endArrow=classic;html=1;rounded=0;entryX=0;entryY=0.5;entryDx=0;entryDy=0;exitX=1;exitY=0.5;exitDx=0;exitDy=0;" edge="1" parent="1" source="-YF_Zsta2TuhW1CbFXiP-10" target="-YF_Zsta2TuhW1CbFXiP-27">
          <mxGeometry width="50" height="50" relative="1" as="geometry">
            <mxPoint x="440" y="379.5" as="sourcePoint" />
            <mxPoint x="480" y="379.5" as="targetPoint" />
          </mxGeometry>
        </mxCell>
        <mxCell id="-YF_Zsta2TuhW1CbFXiP-31" value="" style="endArrow=classic;html=1;rounded=0;exitX=1;exitY=0.5;exitDx=0;exitDy=0;" edge="1" parent="1" source="-YF_Zsta2TuhW1CbFXiP-12">
          <mxGeometry width="50" height="50" relative="1" as="geometry">
            <mxPoint x="520" y="620.5" as="sourcePoint" />
            <mxPoint x="640" y="621" as="targetPoint" />
          </mxGeometry>
        </mxCell>
        <mxCell id="-YF_Zsta2TuhW1CbFXiP-32" value="" style="endArrow=classic;html=1;rounded=0;exitX=1;exitY=0.5;exitDx=0;exitDy=0;" edge="1" parent="1" source="-YF_Zsta2TuhW1CbFXiP-21">
          <mxGeometry width="50" height="50" relative="1" as="geometry">
            <mxPoint x="600" y="740.5" as="sourcePoint" />
            <mxPoint x="640" y="740.5" as="targetPoint" />
          </mxGeometry>
        </mxCell>
        <mxCell id="-YF_Zsta2TuhW1CbFXiP-33" value="Update Big Query" style="rounded=1;whiteSpace=wrap;html=1;strokeColor=#FF3333;" vertex="1" parent="1">
          <mxGeometry x="840" y="350" width="120" height="60" as="geometry" />
        </mxCell>
        <mxCell id="-YF_Zsta2TuhW1CbFXiP-34" value="" style="endArrow=classic;html=1;rounded=0;" edge="1" parent="1">
          <mxGeometry width="50" height="50" relative="1" as="geometry">
            <mxPoint x="760" y="379.5" as="sourcePoint" />
            <mxPoint x="840" y="380" as="targetPoint" />
          </mxGeometry>
        </mxCell>
        <mxCell id="-YF_Zsta2TuhW1CbFXiP-35" value="" style="endArrow=classic;html=1;rounded=0;entryX=0;entryY=0.5;entryDx=0;entryDy=0;entryPerimeter=0;" edge="1" parent="1" target="-YF_Zsta2TuhW1CbFXiP-1">
          <mxGeometry width="50" height="50" relative="1" as="geometry">
            <mxPoint x="960" y="380" as="sourcePoint" />
            <mxPoint x="960" y="380.5" as="targetPoint" />
          </mxGeometry>
        </mxCell>
        <mxCell id="-YF_Zsta2TuhW1CbFXiP-36" value="" style="endArrow=classic;html=1;rounded=0;entryX=0.5;entryY=0;entryDx=0;entryDy=0;" edge="1" parent="1" target="-YF_Zsta2TuhW1CbFXiP-33">
          <mxGeometry width="50" height="50" relative="1" as="geometry">
            <mxPoint x="760" y="259.5" as="sourcePoint" />
            <mxPoint x="840" y="260" as="targetPoint" />
            <Array as="points">
              <mxPoint x="900" y="260" />
            </Array>
          </mxGeometry>
        </mxCell>
        <mxCell id="-YF_Zsta2TuhW1CbFXiP-37" value="" style="endArrow=classic;html=1;rounded=0;entryX=0.75;entryY=1;entryDx=0;entryDy=0;" edge="1" parent="1" target="-YF_Zsta2TuhW1CbFXiP-33">
          <mxGeometry width="50" height="50" relative="1" as="geometry">
            <mxPoint x="760" y="740" as="sourcePoint" />
            <mxPoint x="840" y="500" as="targetPoint" />
            <Array as="points">
              <mxPoint x="930" y="740" />
            </Array>
          </mxGeometry>
        </mxCell>
        <mxCell id="-YF_Zsta2TuhW1CbFXiP-38" value="" style="endArrow=classic;html=1;rounded=0;entryX=0.25;entryY=1;entryDx=0;entryDy=0;" edge="1" parent="1" target="-YF_Zsta2TuhW1CbFXiP-33">
          <mxGeometry width="50" height="50" relative="1" as="geometry">
            <mxPoint x="760" y="619.5" as="sourcePoint" />
            <mxPoint x="900" y="410" as="targetPoint" />
            <Array as="points">
              <mxPoint x="870" y="620" />
            </Array>
          </mxGeometry>
        </mxCell>
        <mxCell id="-YF_Zsta2TuhW1CbFXiP-39" value="El asignador tiene en cuenta parametros de maxima cantidad de dias a solicitar por origen de datos" style="text;html=1;strokeColor=none;fillColor=none;align=center;verticalAlign=middle;whiteSpace=wrap;rounded=0;" vertex="1" parent="1">
          <mxGeometry x="420" y="80" width="360" height="30" as="geometry" />
        </mxCell>
        <mxCell id="-YF_Zsta2TuhW1CbFXiP-40" value="Asignador carga incremental" style="ellipse;shape=umlControl;whiteSpace=wrap;html=1;strokeColor=#FF3333;" vertex="1" parent="1">
          <mxGeometry x="300" y="40" width="120" height="60" as="geometry" />
        </mxCell>
        <mxCell id="-YF_Zsta2TuhW1CbFXiP-41" value="2b" style="endArrow=classic;html=1;rounded=0;exitX=0.5;exitY=1;exitDx=0;exitDy=0;dashed=1;entryX=0.5;entryY=0;entryDx=0;entryDy=0;" edge="1" parent="1" target="-YF_Zsta2TuhW1CbFXiP-42">
          <mxGeometry x="0.9259" y="10" width="50" height="50" relative="1" as="geometry">
            <mxPoint x="360" y="100" as="sourcePoint" />
            <mxPoint x="340" y="460" as="targetPoint" />
            <Array as="points">
              <mxPoint x="360" y="200" />
              <mxPoint x="340" y="200" />
            </Array>
            <mxPoint as="offset" />
          </mxGeometry>
        </mxCell>
        <mxCell id="-YF_Zsta2TuhW1CbFXiP-42" value="File processing" style="rounded=1;whiteSpace=wrap;html=1;strokeColor=#FF3333;" vertex="1" parent="1">
          <mxGeometry x="280" y="470" width="120" height="60" as="geometry" />
        </mxCell>
        <mxCell id="-YF_Zsta2TuhW1CbFXiP-43" value="" style="endArrow=classic;html=1;rounded=0;entryX=0;entryY=0.5;entryDx=0;entryDy=0;" edge="1" parent="1">
          <mxGeometry width="50" height="50" relative="1" as="geometry">
            <mxPoint x="120" y="499.5" as="sourcePoint" />
            <mxPoint x="280" y="499.5" as="targetPoint" />
          </mxGeometry>
        </mxCell>
        <mxCell id="-YF_Zsta2TuhW1CbFXiP-44" value="" style="endArrow=classic;html=1;rounded=0;entryX=0.5;entryY=1;entryDx=0;entryDy=0;" edge="1" parent="1" target="-YF_Zsta2TuhW1CbFXiP-27">
          <mxGeometry width="50" height="50" relative="1" as="geometry">
            <mxPoint x="400" y="499.5" as="sourcePoint" />
            <mxPoint x="560" y="499.5" as="targetPoint" />
            <Array as="points">
              <mxPoint x="700" y="500" />
            </Array>
          </mxGeometry>
        </mxCell>
      </root>
    </mxGraphModel>
  </diagram>
</mxfile>
